# xmcd
#
# Track frame offsets: 
#        150
#        12664
#        33557
#        54609
#        70603
#        93797
#        112391
#        126279
#        143916
#        164592
#        191271
#        204007
#        220175
#        240945
#
# Disc length: 3471 seconds
#
# Revision: 0
# Processed by: cddbd v1.5.2PL0 Copyright (c) Steve Scherf et al.
# Submitted via: ExactAudioCopyFreeDBPlugin 1.0
#
DISCID=c40d8d0e
DTITLE=Ford, David - Charge
DYEAR=2013
DGENRE=Alt. Rock
TTITLE0=Pour a Little Poison
TTITLE1=The Ballad Of Miss Lily
TTITLE2=Isn't It Strange
TTITLE3=Let It Burn
TTITLE4=What's Not to Love
TTITLE5=Perfect Soul
TTITLE6=Throwaway
TTITLE7=Moving On
TTITLE8=Philadelphia Boy
TTITLE9=Every Time
TTITLE10=Pour A Little Poison
TTITLE11=The Ballad of Miss Lily
TTITLE12=Throwaway
TTITLE13=Isn't It Strange
EXTD=
EXTT0=
EXTT1=
EXTT2=
EXTT3=
EXTT4=
EXTT5=
EXTT6=
EXTT7=
EXTT8=
EXTT9=
EXTT10=
EXTT11=
EXTT12=
EXTT13=
PLAYORDER=
